<mxfile host="app.diagrams.net" agent="Mozilla/5.0 (Windows NT 10.0; Win64; x64) AppleWebKit/537.36 (KHTML, like Gecko) Chrome/127.0.0.0 Safari/537.36" version="24.7.5">
  <diagram name="Page-1" id="0wYWYjiwYEq8T9E-R0rx">
    <mxGraphModel dx="1050" dy="618" grid="1" gridSize="10" guides="1" tooltips="1" connect="1" arrows="1" fold="1" page="1" pageScale="1" pageWidth="850" pageHeight="1100" math="0" shadow="0">
      <root>
        <mxCell id="0" />
        <mxCell id="1" parent="0" />
        <mxCell id="Lsua-zjtIRfxh1R7Vm0d-1" value="Data Source - Kaggle" style="rounded=1;whiteSpace=wrap;html=1;" parent="1" vertex="1">
          <mxGeometry x="80" y="80" width="160" height="90" as="geometry" />
        </mxCell>
        <mxCell id="Lsua-zjtIRfxh1R7Vm0d-3" value="" style="endArrow=classic;html=1;rounded=0;" parent="1" edge="1">
          <mxGeometry width="50" height="50" relative="1" as="geometry">
            <mxPoint x="270" y="120" as="sourcePoint" />
            <mxPoint x="420" y="120" as="targetPoint" />
            <Array as="points">
              <mxPoint x="310" y="120" />
            </Array>
          </mxGeometry>
        </mxCell>
        <mxCell id="Lsua-zjtIRfxh1R7Vm0d-4" value="Data Acquistion through pd.read" style="text;html=1;align=center;verticalAlign=middle;resizable=0;points=[];autosize=1;strokeColor=none;fillColor=none;" parent="1" vertex="1">
          <mxGeometry x="240" y="130" width="190" height="30" as="geometry" />
        </mxCell>
        <mxCell id="Lsua-zjtIRfxh1R7Vm0d-6" value="&lt;b&gt;Youtube Consumption.ipynb&lt;/b&gt;&lt;div&gt;&lt;br&gt;&lt;/div&gt;&lt;div&gt;Data Filtering, Dataframe manipulation, SQLITE Database Connection and FINAL DATA OUTPUT&amp;nbsp;&amp;nbsp;&lt;/div&gt;" style="shape=hexagon;perimeter=hexagonPerimeter2;whiteSpace=wrap;html=1;fixedSize=1;" parent="1" vertex="1">
          <mxGeometry x="460" y="50" width="200" height="140" as="geometry" />
        </mxCell>
        <mxCell id="Lsua-zjtIRfxh1R7Vm0d-7" value="(SQLite DB)&amp;nbsp;&lt;span style=&quot;background-color: initial;&quot;&gt;youtube profiles.db&lt;/span&gt;" style="shape=cylinder3;whiteSpace=wrap;html=1;boundedLbl=1;backgroundOutline=1;size=15;" parent="1" vertex="1">
          <mxGeometry x="410" y="250" width="75" height="90" as="geometry" />
        </mxCell>
        <mxCell id="Lsua-zjtIRfxh1R7Vm0d-8" value="AWS S3 Bucket" style="shape=cylinder3;whiteSpace=wrap;html=1;boundedLbl=1;backgroundOutline=1;size=15;" parent="1" vertex="1">
          <mxGeometry x="530" y="260" width="70" height="90" as="geometry" />
        </mxCell>
        <mxCell id="Lsua-zjtIRfxh1R7Vm0d-9" value="Saved Locally" style="shape=cylinder3;whiteSpace=wrap;html=1;boundedLbl=1;backgroundOutline=1;size=15;" parent="1" vertex="1">
          <mxGeometry x="640" y="250" width="70" height="90" as="geometry" />
        </mxCell>
        <mxCell id="Lsua-zjtIRfxh1R7Vm0d-10" value="" style="endArrow=classic;html=1;rounded=0;" parent="1" edge="1">
          <mxGeometry width="50" height="50" relative="1" as="geometry">
            <mxPoint x="500" y="210" as="sourcePoint" />
            <mxPoint x="470" y="250" as="targetPoint" />
            <Array as="points">
              <mxPoint x="490" y="230" />
            </Array>
          </mxGeometry>
        </mxCell>
        <mxCell id="Lsua-zjtIRfxh1R7Vm0d-13" value="" style="endArrow=classic;html=1;rounded=0;" parent="1" edge="1">
          <mxGeometry width="50" height="50" relative="1" as="geometry">
            <mxPoint x="620" y="210" as="sourcePoint" />
            <mxPoint x="650" y="250" as="targetPoint" />
            <Array as="points">
              <mxPoint x="630" y="230" />
            </Array>
          </mxGeometry>
        </mxCell>
        <mxCell id="Lsua-zjtIRfxh1R7Vm0d-14" value="" style="endArrow=classic;html=1;rounded=0;" parent="1" edge="1">
          <mxGeometry width="50" height="50" relative="1" as="geometry">
            <mxPoint x="485" y="280" as="sourcePoint" />
            <mxPoint x="520" y="310" as="targetPoint" />
            <Array as="points">
              <mxPoint x="485" y="310" />
            </Array>
          </mxGeometry>
        </mxCell>
        <mxCell id="Lsua-zjtIRfxh1R7Vm0d-16" value="API SCRIPT (main.py)" style="shape=note;whiteSpace=wrap;html=1;backgroundOutline=1;darkOpacity=0.05;" parent="1" vertex="1">
          <mxGeometry x="410" y="410" width="80" height="100" as="geometry" />
        </mxCell>
        <mxCell id="Lsua-zjtIRfxh1R7Vm0d-18" value="" style="shape=flexArrow;endArrow=classic;startArrow=classic;html=1;rounded=0;" parent="1" edge="1">
          <mxGeometry width="100" height="100" relative="1" as="geometry">
            <mxPoint x="450" y="410" as="sourcePoint" />
            <mxPoint x="450" y="340" as="targetPoint" />
          </mxGeometry>
        </mxCell>
        <mxCell id="Lsua-zjtIRfxh1R7Vm0d-19" value="" style="endArrow=classic;html=1;rounded=0;" parent="1" edge="1">
          <mxGeometry relative="1" as="geometry">
            <mxPoint x="500" y="470" as="sourcePoint" />
            <mxPoint x="600" y="470" as="targetPoint" />
          </mxGeometry>
        </mxCell>
        <mxCell id="Lsua-zjtIRfxh1R7Vm0d-20" value="" style="shape=message;html=1;outlineConnect=0;" parent="Lsua-zjtIRfxh1R7Vm0d-19" vertex="1">
          <mxGeometry width="20" height="14" relative="1" as="geometry">
            <mxPoint x="-10" y="-7" as="offset" />
          </mxGeometry>
        </mxCell>
        <mxCell id="Lsua-zjtIRfxh1R7Vm0d-21" value="UI MVP (Client Web APP)" style="ellipse;whiteSpace=wrap;html=1;" parent="1" vertex="1">
          <mxGeometry x="630" y="430" width="120" height="80" as="geometry" />
        </mxCell>
      </root>
    </mxGraphModel>
  </diagram>
</mxfile>
